<?xml version="1.0" encoding="UTF-8"?>
<svg width="16px" height="16px" viewBox="0 0 16 16" version="1.1" xmlns="http://www.w3.org/2000/svg" xmlns:xlink="http://www.w3.org/1999/xlink">
    <title>切片</title>
    <g id="定稿" stroke="none" stroke-width="1" fill="none" fill-rule="evenodd">
        <g id="blocksign" transform="translate(-1166.000000, -884.000000)">
            <g id="编组-8" transform="translate(388.000000, 877.000000)">
                <g id="编组" transform="translate(778.000000, 7.000000)">
                    <polygon id="路径" points="0 0 16 0 16 16 0 16"></polygon>
                    <path d="M10.1326667,6.63 C9.84352781,6.35607914 9.65754431,5.99093937 9.606,5.596 L9.33733333,3.54066667 L7.51733333,4.53133333 C7.16739787,4.72201229 6.76244608,4.78628662 6.37066667,4.71333333 L4.33333333,4.33333333 L4.71333333,6.37066667 C4.78628662,6.76244608 4.72201229,7.16739787 4.53133333,7.51733333 L3.54066667,9.33733333 L5.596,9.606 C5.99070198,9.65769105 6.35558411,9.84366323 6.62933333,10.1326667 L8.05466667,11.6373333 L8.94533333,9.766 C9.11628938,9.40637807 9.40585045,9.11658158 9.76533333,8.94533333 L11.6373333,8.05466667 L10.1326667,6.63 L10.1326667,6.63 Z M10.1493333,10.3386667 L8.674,13.4386667 C8.61733814,13.5576602 8.50569693,13.6411058 8.37552947,13.6617567 C8.245362,13.6824076 8.11337567,13.6376133 8.02266667,13.542 L5.66133333,11.0493333 C5.59824891,10.9828094 5.51422712,10.9399748 5.42333333,10.928 L2.01866667,10.4826667 C1.88808312,10.465462 1.7743386,10.3850752 1.71453115,10.2677248 C1.6547237,10.1503743 1.65651968,10.0111025 1.71933333,9.89533333 L3.36066667,6.87933333 C3.40429992,6.79867327 3.41889241,6.70546964 3.402,6.61533333 L2.77333333,3.24 C2.74909709,3.11029727 2.79038389,2.97698612 2.883685,2.883685 C2.97698612,2.79038389 3.11029727,2.74909709 3.24,2.77333333 L6.61533333,3.402 C6.70546964,3.41889241 6.79867327,3.40429992 6.87933333,3.36066667 L9.89533333,1.71933333 C10.0112003,1.65650142 10.1505833,1.65478294 10.2679641,1.71473909 C10.385345,1.77469525 10.4656547,1.88862912 10.4826667,2.01933333 L10.928,5.42333333 C10.9399748,5.51422712 10.9828094,5.59824891 11.0493333,5.66133333 L13.542,8.02266667 C13.6376133,8.11337567 13.6824076,8.245362 13.6617567,8.37552947 C13.6411058,8.50569693 13.5576602,8.61733814 13.4386667,8.674 L10.3386667,10.1493333 C10.2556792,10.1888201 10.1888201,10.2556792 10.1493333,10.3386667 L10.1493333,10.3386667 Z M10.6806667,11.6233333 L11.6233333,10.6806667 L14.452,13.5086667 L13.5086667,14.452 L10.6806667,11.6233333 L10.6806667,11.6233333 Z" id="形状" fill="#FBF9F4" fill-rule="nonzero"></path>
                </g>
            </g>
        </g>
    </g>
</svg>