<?xml version="1.0" encoding="UTF-8"?>
<svg width="16px" height="16px" viewBox="0 0 16 16" version="1.1" xmlns="http://www.w3.org/2000/svg" xmlns:xlink="http://www.w3.org/1999/xlink">
    <title>切片</title>
    <g id="定稿" stroke="none" stroke-width="1" fill="none" fill-rule="evenodd">
        <g id="blocksign" transform="translate(-788.000000, -882.000000)">
            <g id="编组-8" transform="translate(388.000000, 877.000000)">
                <g id="编组" transform="translate(400.000000, 5.000000)">
                    <polygon id="路径" points="0 0 16 0 16 16 0 16"></polygon>
                    <path d="M6.36666667,7.66666667 C5.53823954,7.66666667 4.86666667,6.99509379 4.86666667,6.16666667 C4.86666667,5.33823954 5.53823954,4.66666667 6.36666667,4.66666667 C7.19509378,4.66666667 7.86666667,5.33823955 7.86666667,6.16666667 C7.86666667,6.99509378 7.19509378,7.66666667 6.36666667,7.66666667 Z M6.66666667,13.1653333 L6.66666667,10.9333333 C6.66666667,10.608 6.76266667,10.3086667 6.936,10.0413333 C5.73447842,9.87039534 4.51651548,10.2133029 3.58066667,10.986 C4.30938126,12.0643759 5.40675803,12.8395805 6.66666667,13.166 L6.66666667,13.1653333 Z M2.96866667,9.77333333 C3.94232798,9.05278787 5.12205363,8.66476635 6.33333333,8.66666667 C7.02866667,8.66666667 7.69533333,8.792 8.31133333,9.02133333 C8.89666667,8.79266667 9.59466667,8.66666667 10.3333333,8.66666667 C11.44,8.66666667 12.4566667,8.94933333 13.1373333,9.43733333 C13.7549099,7.22324432 12.8844484,4.86255903 10.9773258,3.57940883 C9.07020322,2.29625862 6.55551952,2.37935051 4.73726183,3.78559727 C2.91900413,5.19184402 2.20627788,7.60484208 2.96866667,9.77333333 L2.96866667,9.77333333 Z M12.586,10.724 C12.324,10.3686667 11.4473333,10 10.3333333,10 C8.996,10 8,10.5313333 8,10.9333333 L8,13.3333342 C9.88235488,13.334379 11.6257148,12.3425896 12.5866667,10.724 L12.586,10.724 Z M8,14.6666667 C4.318,14.6666667 1.33333333,11.682 1.33333333,8 C1.33333333,4.318 4.318,1.33333333 8,1.33333333 C11.682,1.33333333 14.6666667,4.318 14.6666667,8 C14.6666667,11.682 11.682,14.6666667 8,14.6666667 Z M10.3333333,8.33333333 C9.59695367,8.33333333 9,7.73637967 9,7 C9,6.26362033 9.59695367,5.66666667 10.3333333,5.66666667 C11.069713,5.66666667 11.6666667,6.26362033 11.6666667,7 C11.6666667,7.73637967 11.069713,8.33333333 10.3333333,8.33333333 Z" id="形状" fill="#FBF9F4" fill-rule="nonzero"></path>
                </g>
            </g>
        </g>
    </g>
</svg>