<?xml version="1.0" encoding="UTF-8"?>
<svg width="16px" height="16px" viewBox="0 0 16 16" version="1.1" xmlns="http://www.w3.org/2000/svg" xmlns:xlink="http://www.w3.org/1999/xlink">
    <title>切片</title>
    <g id="定稿" stroke="none" stroke-width="1" fill="none" fill-rule="evenodd">
        <g id="blocksign" transform="translate(-1010.000000, -687.000000)">
            <g id="编组" transform="translate(1010.000000, 687.000000)">
                <polygon id="路径" points="0 0 16 0 16 16 0 16"></polygon>
                <path d="M4.62666667,9.35733333 C4.47133333,9.77333333 4.34,10.1573333 4.22266667,10.546 C4.86266667,10.0813333 5.62333333,9.78666667 6.50133333,9.67666667 C8.17666667,9.46733333 9.66533333,8.36133333 10.4186667,6.97133333 L9.448,6.00133333 L10.39,5.058 L11.0566667,4.39066667 C11.3433333,4.104 11.6666667,3.57466667 12.0086667,2.812 C8.28,3.39 5.99666667,5.67333333 4.626,9.35733333 L4.62666667,9.35733333 Z M11.3333333,6.00066667 L12,6.66666667 C11.3333333,8.66666667 9.33333333,10.6666667 6.66666667,11 C4.88733333,11.2226667 3.776,12.4446667 3.332,14.6666667 L2,14.6666667 C2.66666667,10.6666667 4,1.33333333 14,1.33333333 C13.3333333,3.33133333 12.668,4.664 12.002,5.33133333 L11.3333333,6.00066667 Z" id="形状" fill="#FBF9F4" fill-rule="nonzero"></path>
            </g>
        </g>
    </g>
</svg>