<?xml version="1.0" encoding="UTF-8"?>
<svg width="16px" height="16px" viewBox="0 0 16 16" version="1.1" xmlns="http://www.w3.org/2000/svg" xmlns:xlink="http://www.w3.org/1999/xlink">
    <title>切片</title>
    <g id="定稿" stroke="none" stroke-width="1" fill="none" fill-rule="evenodd">
        <g id="首页" transform="translate(-1057.000000, -2758.000000)" fill-rule="nonzero">
            <g id="icon/right" transform="translate(1057.000000, 2758.000000)">
                <path d="M8,16 C3.58865187,16 0,12.4111584 0,8.00001252 C0,3.58883539 3.58865187,0 8,0 C12.4113773,0 16,3.58883539 16,8.00001252 C16,12.4111584 12.4113773,16 8,16 Z" id="路径" fill="#8578E6"></path>
                <path d="M7.0678242,10.931399 C6.96170256,11.0403383 6.78656533,11.0403383 6.6804437,10.931399 L4.2135904,8.39774546 C3.99796626,8.17628764 3.99795583,7.82339305 4.2135591,7.60191437 L4.2135591,7.60191437 C4.43747889,7.37191045 4.80702636,7.37188958 5.03096701,7.60188306 L6.73804364,9.35507598 C6.81261053,9.431657 6.93565737,9.431657 7.01022425,9.35507598 L10.9691874,5.2891656 C11.1931176,5.05917211 11.5627173,5.05919298 11.7865432,5.2891969 L11.7865432,5.2891969 C12.0022299,5.51066515 12.0022299,5.86357017 11.7865432,6.08502799 L7.0678242,10.931399 Z" id="路径" fill="#FFFFFF"></path>
            </g>
        </g>
    </g>
</svg>