<?xml version="1.0" encoding="UTF-8"?>
<svg width="24px" height="24px" viewBox="0 0 24 24" version="1.1" xmlns="http://www.w3.org/2000/svg" xmlns:xlink="http://www.w3.org/1999/xlink">
    <title>切片</title>
    <g id="定稿" stroke="none" stroke-width="1" fill="none" fill-rule="evenodd">
        <g id="首页" transform="translate(-947.000000, -5232.000000)" fill="#8578E6" fill-rule="nonzero">
            <g id="icon/email" transform="translate(947.000000, 5232.000000)">
                <path d="M20.4,3 L3.6,3 C2.64522,3 1.729548,3.37533313 1.054416,4.0434325 C0.379284,4.71153188 0,5.61766562 0,6.5625 L0,18.4375 C0,19.382275 0.379284,20.2884563 1.054416,20.9565438 C1.729548,21.6246313 2.64522,22 3.6,22 L20.4,22 C21.35472,22 22.27044,21.6246313 22.94556,20.9565438 C23.62068,20.2884563 24,19.382275 24,18.4375 L24,6.5625 C24,5.61766562 23.62068,4.71153188 22.94556,4.0434325 C22.27044,3.37533313 21.35472,3 20.4,3 Z M20.4,5.375 L12.6,10.683125 C12.4176,10.7873875 12.2106,10.84225 12,10.84225 C11.7894,10.84225 11.5824,10.7873875 11.4,10.683125 L3.6,5.375 L20.4,5.375 Z" id="形状"></path>
            </g>
        </g>
    </g>
</svg>