<?xml version="1.0" encoding="UTF-8"?>
<svg width="24px" height="24px" viewBox="0 0 24 24" version="1.1" xmlns="http://www.w3.org/2000/svg" xmlns:xlink="http://www.w3.org/1999/xlink">
    <title>切片</title>
    <g id="定稿" stroke="none" stroke-width="1" fill="none" fill-rule="evenodd">
        <g id="首页" transform="translate(-947.000000, -5334.000000)" fill="#8578E6" fill-rule="nonzero">
            <g id="icon/adress" transform="translate(947.000000, 5334.000000)">
                <path d="M19.071114,16.9705061 L12,24 L4.92888845,16.9705061 C3.53037701,15.5802922 2.5779879,13.8088907 2.19214336,11.8805295 C1.80629883,9.95216837 2.00434332,7.95330239 2.76122127,6.13681224 C3.51809923,4.32031105 4.79982175,2.76772515 6.44431103,1.67538112 C8.08880031,0.583037093 10.0222008,0 12,0 C13.9777795,0 15.9112244,0.583037093 17.5556692,1.67538112 C19.2002251,2.76772515 20.4818921,4.32031105 21.2387812,6.13681224 C21.9956702,7.95330239 22.1936703,9.95216837 21.8078924,11.8805295 C21.4220034,13.8088907 20.4696699,15.5802922 19.071114,16.9705061 Z M12.0000012,12.1501555 C12.5893347,12.1501555 13.1545571,11.9174222 13.5713349,11.5032079 C13.9881128,11.088883 14.222224,10.5269874 14.222224,9.94101219 C14.222224,9.3551474 13.9881128,8.7932518 13.5713349,8.37896012 C13.1545571,7.96466844 12.5893347,7.7319131 12.0000012,7.7319131 C11.4106344,7.7319131 10.845401,7.96466844 10.4286564,8.37896012 C10.0119119,8.7932518 9.77777848,9.3551474 9.77777848,9.94101219 C9.77777848,10.5269874 10.0119119,11.088883 10.4286564,11.5032079 C10.845401,11.9174222 11.4106344,12.1501555 12.0000012,12.1501555 Z" id="形状"></path>
            </g>
        </g>
    </g>
</svg>