<?xml version="1.0" encoding="UTF-8"?>
<svg width="70px" height="70px" viewBox="0 0 70 70" version="1.1" xmlns="http://www.w3.org/2000/svg" xmlns:xlink="http://www.w3.org/1999/xlink">
    <title>切片</title>
    <g id="定稿" stroke="none" stroke-width="1" fill="none" fill-rule="evenodd">
        <g id="blocksign" transform="translate(-912.000000, -1270.000000)">
            <g id="编组-36" transform="translate(912.000000, 1270.000000)">
                <circle id="椭圆形" fill="#212028" cx="35" cy="35" r="35"></circle>
                <g id="编组-3" transform="translate(15.000000, 15.000000)">
                    <path d="M20.2601371,0.147830647 L20.3102755,0 L20.2334151,0 C20.5763728,0 20.9182843,0.00445994535 21.2590941,0.0133247586 L21.5253692,0.021125 L22.1151054,0.045 L22.1523558,0.04675 L22.7309294,0.07925 L22.8096946,0.084375 L23.3562855,0.12425 L23.4204891,0.129375 L24.027471,0.183576104 C24.5636133,0.235734843 25.0965101,0.298827596 25.6259547,0.37262945 L25.898723,0.411625 L26.4771712,0.501 L26.5168046,0.5075 L27.0755614,0.602875 L27.1395269,0.614375 L27.6538842,0.710625 L27.7513374,0.72975 L28.2893995,0.8395 L28.3312906,0.8485 L28.8595697,0.964875 L28.9170132,0.977875 L29.4978654,1.11584329 C29.795857,1.18905212 30.0924761,1.2657103 30.3876829,1.34577413 L30.6972588,1.431125 L31.2255379,1.58325 L31.3051812,1.607 L31.8063691,1.760125 L31.8489965,1.77340251 L32.4082827,1.95390974 L32.4334811,1.96225 L32.9742722,2.14628743 L33.0087937,2.158375 L33.545576,2.35053239 L34.0000953,2.52098598 L33.9999848,2.51998661 C34.8837054,2.85670924 35.7519779,3.22490264 36.6033203,3.62319592 L36.9017792,3.76439118 C37.2381001,3.92526749 37.5717265,4.09086027 37.9025658,4.2610838 L37.9653491,4.29345993 L38.1489679,4.38898814 L38.1489679,4.38898814 L38.307147,4.47229194 L38.6045008,4.63144119 L38.6045008,4.63144119 L38.8104362,4.74363664 L38.8104362,4.74363664 L38.9959658,4.84611367 L38.9959658,4.84611367 L39.0041091,5.06839745 C39.007844,5.19290662 39.0109832,5.31756479 39.0135239,5.44236926 L39.0170262,5.64301641 C39.020084,5.84002651 39.0215862,6.03740468 39.0215862,6.23513216 L39.0206312,6.50812327 L39.0206312,6.50812327 L39.017368,6.80868679 C39.0112759,7.22262053 38.9986001,7.63496696 38.9794403,8.04562691 L38.9665964,8.30254897 L38.9520631,8.55902479 L38.9520631,8.55902479 L38.9378743,8.78444502 C38.9034887,9.30634976 38.858622,9.82540572 38.8034816,10.3414063 L38.8024293,10.3407303 L38.7810968,10.5433331 L38.7632846,10.701447 L38.7112365,11.1260831 L38.6905418,11.2859581 L38.62319,11.7712081 L38.5974784,11.9452081 L38.5305028,12.3757081 L38.5095573,12.5038331 L38.4245209,12.9984581 L38.3973042,13.1494581 L38.3137491,13.5928114 L38.2868071,13.7288331 L38.1870963,14.2135831 L38.1554898,14.3609581 L38.0668162,14.7603331 L38.0300674,14.9197081 L37.9169364,15.3925831 L37.8727442,15.5705422 L37.8727442,15.5705422 L37.8287597,15.7440468 L37.8287597,15.7440468 L37.7708149,15.9681007 L37.7347597,16.1038579 L37.6739827,16.329133 L37.6739827,16.329133 L37.6002448,16.5949581 L37.5671913,16.7122586 L37.5126194,16.9022602 L37.5126194,16.9022602 L37.4385282,17.1544392 C37.2882985,17.6592878 37.1279242,18.1597402 36.9576393,18.6555867 L36.8633315,18.9268515 C36.6789376,19.4508347 36.4834489,19.969596 36.2771445,20.4828852 L36.2766729,20.4824803 L36.2613607,20.5214581 L36.1991246,20.6754774 C36.0858316,20.952959 35.9693798,21.228803 35.8498078,21.5029798 L35.7497627,21.7298331 L35.692009,21.8598079 L35.6031818,22.0564267 L35.6031818,22.0564267 L35.5133122,22.2523874 L35.2946048,22.7168331 L35.2167175,22.8787081 L35.0210585,23.2767081 L34.9784149,23.3620831 L34.7619358,23.7867081 L34.6795333,23.9450831 L34.4498849,24.3772081 L34.4242987,24.4244581 L34.1857453,24.8579581 L34.1509379,24.9203334 C32.5384466,24.5463854 31.0037067,23.9708801 29.5749667,23.2219416 C30.6285494,21.4374819 31.5211527,19.5476026 32.2329718,17.572043 C28.9345291,15.6813274 25.1440606,14.546344 21.0998268,14.4039913 C20.3869634,12.8998827 19.8653426,11.2882007 19.5653806,9.60032068 C19.7876668,9.59502902 20.0102456,9.59251101 20.2334151,9.59251101 C25.0377543,9.59251101 29.5683302,10.7594667 33.5547794,12.8242056 C33.8824516,11.185488 34.0902132,9.50361024 34.1686667,7.78817543 C29.9211031,5.86640123 25.2027851,4.79625551 20.2334151,4.79625551 C19.9290098,4.79625551 19.6255465,4.80027105 19.3230757,4.80825185 C19.4418894,3.19071972 19.762732,1.62902659 20.2601371,0.147830647 Z" id="路径" fill="#FFFFFF"></path>
                    <path d="M2.15099423,18.9058349 L1.98531123,18.4238349 L1.93301009,18.2675849 L1.80645888,17.8779599 L1.76908301,17.7608349 L1.62133542,17.2820849 L1.57442744,17.1255849 L1.4600422,16.7322099 L1.41827654,16.5845849 L1.29084738,16.1188349 L1.24519363,15.9467099 L1.14084219,15.5392099 L1.10672729,15.4014599 L0.991965793,14.9218349 L0.956471252,14.7677099 L0.868424725,14.3723349 L0.834309831,14.2132099 L0.732341417,13.7168349 L0.703494264,13.5702099 L0.625732373,13.1577099 L0.597763177,13.0033349 L0.513730167,12.5147099 L0.487893151,12.3568349 L0.423551458,11.9427099 L0.399721201,11.7812099 L0.329108388,11.2715849 L0.31355601,11.1514599 L0.260126066,10.7160849 L0.240685593,10.5467099 L0.187506494,10.0425849 L0.177974391,9.94520986 L0.134282829,9.46108587 L0.121158042,9.29995986 L0.0849109675,8.80020986 L0.0791795804,8.71468853 L0.064592538,8.47420986 L0.0511723408,8.22808486 L0.0423927725,8.04820986 L0.0213218087,7.52220986 L0.0198789984,7.47935062 L0.00689823222,6.96083486 L0.00423165509,6.80959986 L0,6.23513216 L0.00426436173,5.70419188 L0.180329165,5.59674028 C1.70713251,4.6687601 3.30382152,3.84356739 4.96069909,3.13081688 C4.86558935,4.15293378 4.81747978,5.18843943 4.81747978,6.23513216 C4.81747978,17.6638382 10.5531893,27.7587995 19.315056,33.8224013 L17.8246752,29.2571586 L23.130431,30.5863662 C15.0211733,25.489645 9.63495957,16.4886262 9.63495957,6.23513216 C9.63495957,4.57115469 9.77681131,2.94016251 10.0491322,1.35348809 C11.720818,0.899142271 13.436886,0.553711653 15.1900016,0.325584863 C14.7081252,2.21587743 14.4524393,4.19577703 14.4524393,6.23513216 C14.4524393,17.0048619 21.5831148,26.1164706 31.400437,29.1455087 C30.4349938,30.4348173 29.3897205,31.6621625 28.2721431,32.8198638 L28.1039688,32.992992 C28.0834552,33.0139783 28.0630436,33.034813 28.0426085,33.0556247 L27.9178983,33.0063349 L23.3647769,33.3339758 L23.963543,36.5191259 L24.0790697,36.5740728 L24.0790697,36.5740728 L23.9872856,36.6443349 L23.9874893,36.644727 L23.9870348,36.6444599 L23.8981813,36.7129074 C22.508092,37.773315 21.0427443,38.7417946 19.5119122,39.6088858 C19.3026406,39.4913147 19.0949283,39.3713373 18.8885431,39.2493667 L18.740741,39.1614599 L18.6370167,39.0990849 L18.304538,38.8970718 L18.1862486,38.8238349 L17.7874053,38.5729599 L17.6382781,38.4774599 L17.2830818,38.2460849 L17.1686966,38.1702099 L16.7762499,37.9059599 L16.6539631,37.8219599 L16.3400308,37.6038349 L16.1940391,37.5007099 L15.7742503,37.1985849 L15.6912207,37.1375849 L15.3775393,36.9050849 L15.2432119,36.8038349 L14.8342094,36.4903349 L14.7479188,36.4227099 L14.4481592,36.1859599 L14.319637,36.0830587 C14.0884151,35.8968499 13.8594116,35.7080416 13.632663,35.5166718 L13.4067151,35.3244905 C13.1817985,35.1316956 12.9591686,34.9363831 12.7388502,34.7385804 L12.5148983,34.5357099 L12.1339795,34.1838321 L11.7734011,33.8414599 L11.6468499,33.7192099 L11.3512292,33.4293349 L11.2636844,33.3423349 L10.9301862,33.0057099 L10.8089028,32.8812099 L10.5404988,32.6014599 L10.4350186,32.4902099 L10.1090458,32.1400849 L9.97584716,31.9943349 L9.74218523,31.7353349 L9.63469823,31.6147099 L9.32214559,31.2578349 L9.20876374,31.1262099 L8.9621833,30.8352099 L8.87325881,30.7292099 L8.56095703,30.3497099 L8.51781172,30.2965849 L8.43666342,30.1958349 L8.23975025,29.9489599 L8.11896847,29.7955849 L7.82272076,29.4119599 L7.79337191,29.3735849 L7.7166134,29.2720849 L7.50740883,28.9924599 L7.39678627,28.8424599 L7.11182657,28.4489599 L7.01487505,28.3122099 L6.8012807,28.0075849 L6.71461382,27.8820849 L6.44658614,27.4869599 L6.36832256,27.3697099 L6.14130801,27.0242099 L6.04924796,26.8812099 L5.79827773,26.4852099 L5.70521431,26.3355849 L5.52573485,26.0424599 L5.46628463,25.9444599 L5.42715284,25.8793349 L5.17906733,25.4598349 L5.12074591,25.3590849 L4.90453576,24.9807965 L4.82412192,24.8372099 L4.57390423,24.3817099 L4.33723215,23.9362099 L4.27736568,23.8214687 C4.13880368,23.5544301 4.00330476,23.2855764 3.87091022,23.0149442 L3.73956583,22.7437494 C3.61004163,22.4735962 3.48360489,22.2017149 3.36029502,21.9281381 L3.26186046,21.7075849 L3.22573881,21.6259599 L3.05528976,21.2327099 L3.018541,21.1464599 L2.82827521,20.6893349 L2.76782161,20.5407099 L2.58257272,20.0733349 L2.56727119,20.0335849 L2.38929679,19.5648349 L2.33674481,19.4229599 L2.19890559,19.0410849 L2.15099423,18.9058349 Z" id="路径" fill="#8578E6"></path>
                </g>
            </g>
        </g>
    </g>
</svg>